<?xml version="1.0" encoding="utf-8"?>
<!-- Generator: Adobe Illustrator 23.1.1, SVG Export Plug-In . SVG Version: 6.00 Build 0)  -->
<svg version="1.1" id="Layer_1" xmlns="http://www.w3.org/2000/svg" xmlns:xlink="http://www.w3.org/1999/xlink" x="0px" y="0px"
	 viewBox="0 0 256 256" style="enable-background:new 0 0 256 256;" xml:space="preserve">
<style type="text/css">
	.st0{fill:#B4FFF4;}
</style>
<path class="st0" d="M180.6,187.7l-18.3-30.2c3.4-11.6,6-24.7,6-37.5c0-1.7,0-3.4-0.1-5c-1.9-33.7-14.9-45.8-24.6-55.5
	c-4.6-4.6-8.1-8.6-10.6-14.2c0-0.1-0.1-0.2-0.1-0.3c1.7-0.3,3.1-0.7,4.1-1.4c1.8-1.1,2.7-2.9,2.7-5.1l-0.5-1.2
	c-0.8-0.8-3.1-1.3-6.9-1.4c-0.3-2-0.3-3.9,0.1-6.5c0.1-1.2,0.1-1.2,1.8-1.4l0.3,0c1.2-0.1,1.7-0.8,2-1.3c0.7-1.3-0.2-2.8-0.7-3.7
	c0,0-0.2-0.3-0.2-0.3l-0.2-0.6c-2.6-6.5-4-11-4-13.5c0-3.2-0.8-4.1-1.4-4.4c-0.5-0.3-1.1-0.3-1.6,0c-0.3,0.2-1.4,0.8-1.4,4.4
	c0,1.7-0.7,5.4-4,13.6c0,0-0.2,0.4-0.2,0.4l-0.2,0.3c-0.4,0.7-1,1.7-1,2.7c0,0.3,0.1,0.7,0.2,1c0.2,0.5,0.8,1.1,2,1.3l0.3,0
	c1.7,0.2,1.7,0.2,1.8,1.4c0.2,1.5,0.3,2.8,0.3,4c0,0.9-0.1,1.7-0.2,2.5c-3.8,0.2-6.1,0.6-6.9,1.4l-0.5,1.2c0,2.2,0.9,4,2.7,5.1
	c1,0.7,2.4,1.1,4.1,1.4c0,0.1-0.1,0.2-0.1,0.3c-2.4,5.7-6.5,9.7-11.1,14.3c-9.7,9.7-22.7,21.7-24.6,55.3c-0.1,1.7-0.1,3.3-0.1,5
	c0,12.8,2.7,25.8,6,37.5l-18.3,30.2l-11.1,64.2h12.5l11.7-40.8l19.6-16.4l0,0l0.7,0.3c0.7,0.3,1.4,0.5,2.2,0.7c0.3,2,0.7,4.2,1,5.5
	c0.2,1,0.7,3.5,9.9,4.1v46.6h10.3v-46.6c9.7-0.6,10.1-3.1,10.3-4.1c0.3-1.3,0.6-3.5,1-5.5c0.8-0.2,1.5-0.4,2.2-0.7l0.4-0.2
	l19.5,16.3l11.7,40.8h12.5L180.6,187.7z"/>
</svg>
