<svg xmlns="http://www.w3.org/2000/svg" id="Layer_1" viewBox="0 0 18 36" width="18" height="36"><style>.st0{fill:#b4fff4}</style><path d="M15.7 25.5l-2.4-3.9c.4-1.5.8-3.2.8-4.8v-.6c-.2-4.3-1.9-5.9-3.2-7.2-.6-.6-1-1.1-1.4-1.8.2-.2.4-.2.6-.3.2-.1.3-.4.3-.7l-.1-.2c-.1 0-.4-.1-.9-.1v-.8c0-.2 0-.2.2-.2s.2-.1.3-.2c.1-.2 0-.4-.1-.5v-.1c-.3-.8-.5-1.4-.5-1.7 0-.4-.1-.5-.2-.6h-.2s-.2.1-.2.6c0 .2-.1.7-.5 1.8v.1c-.1 0-.1.1-.1.2v.1c0 .1.1.1.3.2.2 0 .2 0 .2.2v.8c-.5.1-.8.1-.9.2v.2c0 .3.1.5.3.7.2 0 .3.1.6.1-.4.8-.9 1.3-1.5 1.9-1.3 1.3-2.9 2.8-3.2 7.1v.6c0 1.7.3 3.3.8 4.8l-2.4 3.9-1.4 8.3h1.6L4 28.4l2.5-2.1h.1c.1 0 .2.1.3.1.1.3.1.6.2.8 0 .1.1.5 1.3.5v6h1.3v-6c1.3-.1 1.3-.4 1.3-.5 0-.2.1-.5.1-.7.1 0 .2-.1.3-.1h.1l2.5 2.1 1.5 5.3h1.6l-1.4-8.3z" class="st0"/></svg>